PathFileType	4	(X/Y/Z)	C:/Users/beibeiliu/ov580/test_trc/User2\sequence.18_training_dense_right.trc
DataRate	CameraRate	NumFrames	NumMarkers	Units	OrigDataRate	OrigDataStartFrame	OrigNumFrames
120	120	18	19	mm	120	376	429
Frame#	Time	ThumbCMC			ThumbMCP			ThumbIP			ThumbTip			IndexMCP			IndexPIP			IndexTip			MiddleMCP			MiddlePIP			MiddleTip			RingMCP			RingPIP			RingTip			PinkyMCP			PinkyPIP			PinkyTip			BackHand1			BackHand2			BackHand3	
		X0	Y0	Z0	X1	Y1	Z1	X2	Y2	Z2	X3	Y3	Z3	X4	Y4	Z4	X5	Y5	Z5	X6	Y6	Z6	X7	Y7	Z7	X8	Y8	Z8	X9	Y9	Z9	X10	Y10	Z10	X11	Y11	Z11	X12	Y12	Z12	X13	Y13	Z13	X14	Y14	Z14	X15	Y15	Z15	X16	Y16	Z16	X17	Y17	Z17	X18	Y18	Z18	
375	3.125	25.7722	27.7865	60.9464	-1.70337	33.001	38.7203	-23.3758	37.7255	7.90096	-27.7867	31.8962	-18.9682	8.27622	42.3173	-18.0364	-16.9493	21.4869	-23.8954	-3.18129	9.43737	10.8309	17.0531	22.7586	-32.1207	-6.61387	-1.57879	-27.0408	9.36291	-7.47549	12.5349	25.1017	2.0307	-32.2638	7.22893	-20.547	-18.0506	22.9766	-10.1095	14.7522	40.0713	-13.2222	-26.546	17.8453	-31.7383	-10.5612	29.2477	-24.4621	19.1379	72.9694	20.3615	10.9153	87.5357	14.6909	41.4234	56.3738	40.1941	41.7545	
376	3.13333	25.1017	29.3707	58.496	-1.32945	33.6446	41.0989	-17.7744	40.5808	6.34382	-25.195	38.858	-20.1928	7.71643	48.1047	-20.193	-13.3295	23.7977	-24.5149	-6.6719	11.3408	5.77353	22.6294	28.4569	-32.2368	-1.70191	3.04013	-28.2702	9.35833	-1.81065	11.1896	27.5603	8.70392	-34.9923	11.4342	-14.0063	-24.845	21.691	-9.38977	8.40503	41.9023	-7.29798	-30.1589	22.3154	-28.732	-15.6272	33.9625	-21.467	15.0692	77.0507	19.9324	13.0839	90.1897	14.2968	45.1469	61.1529	41.2423	39.9062	
377	3.14167	26.0286	26.1297	60.5664	1.47452	35.7144	36.5818	-13.7553	41.0765	7.40718	-22.1888	42.5456	-20.0932	11.8533	51.7634	-19.0303	-7.36333	27.0962	-28.938	-1.59968	9.81106	-0.45458	23.9894	35.0258	-33.504	4.01069	4.3025	-31.3094	12.4853	-1.3061	5.46916	39.3008	12.7274	-36.088	15.675	-11.4968	-26.2635	26.884	-7.6311	5.05639	51.4443	-2.65869	-31.6908	26.0079	-23.0989	-20.2712	31.922	-18.2894	8.12637	78.7869	23.6828	11.9358	92.6598	15.6841	41.2337	61.8755	41.652	46.0797	
378	3.15	28.1493	23.492	58.3282	-0.0263727	33.5236	37.4057	-12.0994	41.4317	2.5457	-17.0766	40.5897	-19.7385	17.4654	53.8632	-18.0558	-2.04196	28.967	-32.6472	-1.2172	11.4583	0.285388	28.1054	38.2857	-33.372	10.0609	7.83304	-38.1196	16.5601	-2.44369	0.194448	41.2826	17.524	-36.3906	22.2809	-10.5841	-31.1402	30.8036	-5.17091	3.27287	55.3295	-0.75958	-34.9067	31.0083	-19.3507	-25.5541	40.3531	-19.1416	6.02412	80.3381	26.0312	12.5645	92.7081	17.6638	48.0609	62.1212	40.7553	42.4932	
379	3.15833	24.7477	26.3806	54.4114	7.18847	31.368	29.8426	-8.74821	38.0483	2.30372	-13.0563	39.5242	-23.7117	23.2144	51.0036	-22.1471	2.74532	30.2836	-36.7312	3.65123	8.32504	-6.36233	35.6355	35.4586	-38.7584	15.4679	7.85423	-40.9905	22.8537	-4.60957	-2.42554	44.3059	16.576	-39.6985	26.9365	-6.63626	-37.1795	36.2471	-9.65147	-1.76551	64.1641	-1.95341	-36.4049	36.5623	-21.1446	-27.7203	41.8213	-18.4946	4.8809	87.0608	25.3254	13.0829	96.0864	17.629	41.494	63.669	37.0655	44.8776	
380	3.16667	26.1117	21.7515	56.2853	8.72579	29.343	26.2529	-8.14344	37.6578	-1.41904	-10.0645	38.3823	-29.9237	26.0227	47.8422	-29.3134	7.16228	27.2664	-41.1208	9.62403	5.17615	-9.32154	39.7574	33.8469	-38.6903	20.3362	4.10933	-43.0549	24.0744	-3.83521	-1.4897	51.2365	13.1642	-44.1369	33.983	-10.8877	-39.2197	36.055	-8.41589	-3.27125	67.9783	0.639672	-35.0418	41.8157	-23.962	-29.01	46.3446	-21.7478	-0.196057	84.3293	26.0778	14.136	95.2681	16.8749	42.47	62.4303	41.4666	41.7694	
381	3.175	28.2762	20.1746	51.6274	9.28603	27.5275	21.607	-7.14074	32.797	-7.12023	-6.47913	33.5192	-37.7883	27.5079	45.2008	-28.2442	11.8954	18.5575	-42.9253	9.75289	3.8339	-9.96024	43.1642	31.0474	-41.5445	24.1606	-1.0661	-44.4824	28.122	-8.60317	-7.62026	53.2241	9.64381	-44.8414	39.1201	-16.5343	-39.8589	41.9674	-9.67673	-2.78331	69.631	-4.96381	-38.0443	46.7669	-24.9757	-31.8695	50.8397	-24.5489	-0.197116	90.2367	25.6704	10.4505	98.3238	16.7789	42.6099	63.8698	39.5886	40.7553	
382	3.18333	27.8443	21.8054	44.9173	9.81684	24.5424	19.1231	-2.27895	29.1968	-14.5116	0.330233	24.4876	-40.9407	31.5269	38.7524	-34.5217	16.2946	12.4697	-46.2805	14.7227	0.555937	-13.5636	47.6117	25.8994	-42.5093	27.4293	-3.3376	-48.7617	33.1921	-14.8201	-8.68059	62.7582	2.06907	-45.3297	42.8515	-23.5262	-38.8006	49.408	-16.7687	-2.82407	77.0454	-10.6615	-36.4309	51.8928	-33.6831	-30.5067	53.77	-23.8478	0.371831	93.368	18.98	8.05899	101.406	12.0908	44.4834	65.3623	37.0851	38.3078	
383	3.19167	33.5567	17.3569	44.5862	12.493	21.4476	15.0384	2.47162	21.5331	-19.367	0.0692081	17.496	-45.2613	34.8144	33.1551	-38.9535	21.8148	3.618	-48.0815	23.0131	-3.81032	-11.2142	50.0567	15.7212	-47.7761	29.5375	-13.0733	-48.2897	35.8894	-16.1219	-5.72813	64.8814	-5.64585	-46.8371	44.165	-30.5593	-36.3387	48.205	-21.8686	-4.61142	76.436	-21.4608	-39.289	53.7141	-41.5869	-25.7691	55.3622	-26.5405	4.36767	93.1034	17.5556	7.7594	102.468	10.4914	42.5862	70.8935	33.2809	35.1224	
384	3.2	34.4422	18.2549	41.2043	11.9401	20.7475	10.8811	3.78983	15.141	-18.2116	4.70413	8.95906	-46.6403	37.1092	25.9942	-41.6455	19.8129	-0.119243	-49.4074	23.3817	-6.94013	-13.5525	49.7558	7.52101	-49.2489	29.1657	-21.7188	-43.5926	32.8244	-20.3345	-5.45407	64.3993	-12.1597	-43.4185	44.9796	-36.7967	-37.948	48.1789	-22.7808	-2.09373	77.01	-29.4093	-37.2907	51.7242	-44.1739	-21.6369	58.2979	-31.8232	9.47698	96.9086	11.0788	3.08137	102.134	8.47185	40.9504	72.1115	33.1232	29.3775	
385	3.20833	35.3707	19.274	37.2217	15.4213	17.3198	12.6496	4.05347	12.6467	-22.1169	4.97539	1.0907	-46.1833	40.762	16.7879	-41.5035	22.3586	-10.5036	-45.7521	22.3492	-8.75495	-10.1399	53.7138	-3.27462	-49.339	31.4367	-32.148	-40.052	31.838	-23.0217	-3.29278	62.2377	-21.121	-42.6647	42.856	-42.7485	-32.7616	50.6923	-30.4169	1.47876	76.0656	-38.4379	-33.998	50.4867	-50.362	-17.1737	55.5715	-34.0471	9.95593	98.704	7.02371	5.48819	103.95	5.77645	35.5864	72.8406	31.3753	27.338	
386	3.21667	37.6622	19.2664	36.5174	13.5659	17.8349	10.0299	5.39036	8.84511	-21.952	4.39974	-2.75218	-46.4478	37.3609	12.8141	-43.7536	16.5302	-12.8263	-43.6554	18.8636	-10.4509	-9.48259	50.9029	-11.4283	-49.5238	25.7501	-32.4453	-39.8557	30.4435	-21.6162	2.24962	59.0911	-31.2843	-41.7311	37.2835	-45.4219	-25.3866	48.2711	-29.422	4.77811	72.4081	-40.1068	-29.1614	47.7879	-55.7631	-9.5848	56.2332	-34.6478	14.4774	94.0629	2.80869	3.66081	103.279	5.93523	35.5865	73.5288	27.1124	27.011	
387	3.225	36.696	21.6786	39.0143	14.5342	15.7653	14.9233	1.01329	8.4817	-17.4905	-2.02223	-5.49201	-42.6964	36.9191	7.79766	-42.4643	13.6767	-15.6211	-39.0612	21.7528	-12.8542	-6.91792	46.9359	-9.01669	-44.8096	23.1583	-37.6297	-32.7887	31.7799	-24.8427	5.32957	54.7362	-31.9563	-37.6503	33.1758	-46.0521	-20.2122	45.5483	-31.4617	8.19241	65.5839	-46.425	-27.2995	43.4905	-55.9849	-3.22772	50.157	-35.3896	16.8329	92.746	0.912346	0.65166	102.336	3.85467	34.508	77.4304	26.0974	22.0634	
388	3.23333	36.8774	22.8384	37.413	12.0554	18.3131	9.71182	-3.39708	9.18723	-17.6989	-5.24911	-4.87876	-42.8027	30.2954	7.8276	-43.3987	12.0114	-16.0262	-38.4449	19.5232	-11.4368	-4.86017	44.0952	-11.088	-43.4842	17.9624	-36.1682	-30.5308	27.156	-25.0013	5.74816	50.2711	-37.9967	-36.001	31.019	-49.1476	-19.0778	40.0947	-28.9463	9.7854	66.6038	-49.7916	-23.3705	39.503	-54.2224	-2.19521	53.2657	-34.0833	22.341	95.5065	-5.53928	5.48082	102.967	2.354	36.3963	76.8277	25.4305	20.8347	
389	3.24167	33.5949	25.2798	39.0666	12.1648	17.7594	13.7242	-4.53169	9.30736	-16.8267	-3.54319	-8.12818	-42.3092	31.4389	4.38975	-42.4676	9.88013	-17.746	-36.3997	15.7409	-7.05456	-1.24454	38.9408	-14.8534	-44.8202	15.8592	-36.786	-27.2574	24.4361	-25.2203	7.31355	45.944	-37.4161	-34.672	25.9692	-45.806	-14.0825	41.2685	-31.3325	13.0196	61.0928	-49.2396	-21.2959	35.7948	-53.3888	-0.819783	47.9302	-32.3145	20.836	94.4931	-4.84418	4.97538	104.079	1.01555	37.4488	72.9411	27.8246	19.5666	
390	3.25	34.3296	25.0948	40.8039	10.1878	18.3252	12.0483	-5.98971	8.19628	-16.6382	-7.16494	-7.83479	-39.5433	27.835	8.77699	-40.2991	5.24191	-14.1458	-36.7471	18.4591	-8.50644	-1.54303	42.9988	-17.3114	-40.4692	14.8979	-38.5106	-25.8953	21.4547	-23.6352	8.62065	43.6334	-38.1373	-32.9663	23.1863	-46.858	-11.9134	37.5846	-23.7773	14.2146	57.646	-48.2809	-20.3415	33.1259	-55.4703	1.19884	42.3473	-33.5883	24.1946	91.4349	-5.25599	0.640715	101.31	-1.31816	37.0585	73.4478	24.5635	24.1929	
391	3.25833	36.1075	24.0843	40.4895	9.81926	20.8239	16.2173	-8.87185	11.0229	-13.1417	-10.7572	-6.59247	-37.9938	29.0151	5.03368	-38.7913	3.34999	-15.1914	-32.4199	16.6649	-5.7708	1.02633	38.4147	-14.1857	-40.5471	9.65755	-35.7164	-25.7229	20.6498	-24.336	10.1318	45.0338	-36.2876	-30.1706	21.6898	-50.0382	-12.3966	34.892	-26.3218	15.2971	52.9059	-54.0399	-18.6146	30.6737	-54.5999	5.4901	41.8245	-32.5764	26.5121	88.8537	-5.30039	2.09779	97.2448	0.414227	34.1803	73.5956	27.2733	22.9283	
392	3.26667	35.6531	27.2283	38.0155	11.3545	21.3143	14.6114	-6.13748	11.3114	-14.9231	-14.8077	-4.89047	-35.9673	23.409	6.34756	-39.7946	1.85894	-13.4948	-32.0867	12.8228	-2.14099	1.11044	37.0662	-19.1783	-39.5751	8.74703	-36.4319	-23.2441	16.5265	-18.8921	13.5384	39.7667	-41.9204	-30.1861	16.2789	-46.3007	-8.56782	32.0639	-28.516	16.9252	51.8555	-54.1369	-16.3354	27.2858	-54.9143	3.22989	41.3795	-36.1522	28.2134	89.1461	-11.0149	1.30096	101.888	-3.02206	34.4931	75.6034	21.8024	22.6828	
